<?xml version="1.0" encoding="UTF-8"?><svg id="Capa_1" xmlns="http://www.w3.org/2000/svg" viewBox="0 0 300 600"><defs><style>.cls-1{opacity:.3;}.cls-2{stroke:#cecece;stroke-miterlimit:10;}.cls-2,.cls-3{fill:none;}</style></defs><polygon points="232.6 178.73 232.7 178.89 232.54 178.79 232.6 178.73"/><path d="M256.31,81.18l-.03-.03,.03,.03Z"/><g class="cls-1"><path class="cls-2" d="M74.08,45.14c-.65-1.77-1.75-3.28-2.74-4.85-2.25-3.57-4.11-7.34-5.81-11.2-.43-.97-.75-1.96-.84-3.03-.33-4.12-.57-8.24-.5-12.38,.03-1.71,1.07-2.21,2.33-2.64,5.35-1.85,10.75-3.53,16.17-5.16,2.96-.89,5.9-1.38,9.03-1.4,5.01-.05,10.02-.52,15.01-.99,5.48-.51,10.99-.3,16.47-.84,.64-.06,1.3-.14,1.85,.33,.78,2.42-1.52,14.39-3.52,18.27-.49,.35-1.06,.37-1.62,.41-6.38,.4-12.68,1.57-19.07,1.84-3.27,.14-6.08,1.51-8.85,3.06-1.49,.84-2.1,2.04-2.02,3.8,.16,3.25,.82,6.42,1.74,9.75l5.44-13.31c5.27-.9,25.16,1.87,32.72,4.57,.33,2.77,.81,5.67,.1,8.85-8.32,1.14-16.67,.96-24.88,2.2-.79,1.17-1.09,2.42-1.61,3.88,11.49,3.37,21.75,.15,31.91-5.29,5.6,7.05,10.34,14.37,14,22.4-3.22,2.98-6.65,3.48-10.28,1.81-5.35-2.46-10.96-4.42-15.69-8.1-.44-.34-.92-.67-1.75-.71-4.66,3.17-9.5,6.41-14.27,9.74-1.58,1.11-3.2,1.73-5.14,1.83-4.52,.23-9.04,.63-13.56,.95-4.73,.34-8.96-.91-12.56-4.08-4.43-3.9-9.17-7.44-13.23-11.77-2.28-2.44-2.59-2.43-7.4-4.01,2.82-1.97,4.88-4.51,7.76-6,2.73-1.41,5.49-1.07,8.13,.39,.92,.51,1.78,1.12,2.67,1.68l.08,.09-.09-.07Zm-9.83,1.56c-.03-.28-.18-.46-.46-.42-.26,.03-.43,.23-.43,.49,0,.28,.2,.44,.47,.41,.27-.02,.41-.21,.43-.48Z"/><path class="cls-2" d="M235.89,362.7v-.11c.19-.95,.35-1.92,.61-2.86,.74-2.7,2.31-4.76,5.03-5.66,2.86-.95,5.89-.66,9.03-1.25-2.08,4.22-2.28,4.42-2.15,7.52,.24,5.52-.5,10.97-.78,16.45-.23,4.45-2.16,8.07-5.46,10.99-3.15,2.79-6.35,5.53-9.45,8.39-1.33,1.23-2.79,1.9-4.56,2.23-5.32,1-10.61,2.11-15.75,3.14-.51,.57-.6,1.11-.66,1.62-.63,5.53-2.98,10.54-4.82,15.69-1.25,3.5-3.81,5.46-7.89,5.65-2.95-7.66-4.73-15.56-5.77-23.87,10.22-3.21,19.03-7.94,24.27-17.76-1.31-.61-2.33-1.22-3.62-1.46-6.16,4.65-11.48,10.32-17.64,15.1-2.56-1.6-4.18-3.8-5.81-5.82,3.12-6.78,14.22-21.8,18.25-24.71l12.38,5.05c-1.62-2.78-3.29-5.27-5.35-7.5-1.11-1.2-2.31-1.58-3.84-1.13-2.83,.83-5.57,1.81-7.79,3.89-4.33,4.07-9.21,7.5-13.63,11.47-.39,.35-.78,.72-1.33,.81-3.88-1.2-13.33-7.45-14.42-9.55,.05-.67,.53-1.06,.99-1.45,3.92-3.29,7.37-7.08,11.27-10.39,3.56-3.01,7.13-6.03,10.42-9.33,2.06-2.06,4.29-3.7,6.81-5.09,4.61-2.54,9.24-5.04,13.95-7.39,1.11-.56,2.11-.93,3.27,.17,2.8,2.65,5.37,5.48,7.9,8.38,.66,.75,1.1,1.61,1.47,2.53,1.46,3.64,2.75,7.32,3.66,11.14,.4,1.68,.69,3.4,1.44,4.98v.11Zm8.03-5.59c.19-.17,.22-.4,.03-.58-.17-.17-.42-.18-.61-.03-.21,.16-.18,.38-.02,.58,.19,.17,.41,.19,.6,.03Z"/><path class="cls-2" d="M52.18,24.03c.38,6.69-1.73,12.43-4.3,18.02-1.41,3.07-3.99,4.99-7.07,6.19-3.63,1.41-7.36,2.41-11.31,2.49-1.66,.04-3.21-.26-4.66-.94-4.41-2.06-8.64-4.46-12.75-7.07-2.51-1.6-3.66-4.13-4.43-6.74-.74-2.5-1.6-4.98-1.77-7.67-.25-3.88,.03-7.52,2.25-10.85,1.53-2.29,2.99-4.61,4.46-6.94,.65-1.02,1.56-1.57,2.68-2,3.47-1.33,7.09-2.18,10.65-3.18,1.6-.45,3.34-.65,5.1-.35,2.07,.36,4.18,.29,6.28,.75,1.56,.34,3.03,.81,4.25,1.7,2.58,1.89,5.01,3.98,7.5,6,2.29,1.85,2.96,4.41,3.11,7.18,.07,1.26,.01,2.53,.01,3.41Z"/><path class="cls-2" d="M176.65,477.72c.36,6.48-1.67,12.03-4.16,17.44-1.37,2.97-3.87,4.83-6.85,5.99-3.51,1.37-7.12,2.33-10.94,2.41-1.6,.03-3.11-.25-4.51-.91-4.27-2-8.36-4.32-12.34-6.85-2.43-1.54-3.54-4-4.29-6.53-.72-2.42-1.55-4.82-1.72-7.43-.24-3.75,.02-7.28,2.18-10.5,1.48-2.21,2.89-4.47,4.32-6.72,.63-.99,1.51-1.52,2.6-1.93,3.36-1.29,6.86-2.11,10.31-3.08,1.55-.44,3.23-.63,4.94-.34,2,.35,4.05,.28,6.08,.73,1.51,.33,2.93,.78,4.11,1.65,2.5,1.83,4.85,3.86,7.26,5.81,2.21,1.79,2.87,4.27,3.02,6.95,.07,1.22,.01,2.44,.01,3.31Z"/><path class="cls-2" d="M281.04,249.91c.41,7.37-1.9,13.68-4.73,19.83-1.55,3.38-4.4,5.49-7.79,6.81-4,1.55-8.1,2.65-12.45,2.74-1.83,.04-3.54-.28-5.13-1.03-4.85-2.27-9.51-4.91-14.03-7.79-2.76-1.76-4.02-4.55-4.88-7.42-.82-2.75-1.76-5.48-1.95-8.45-.27-4.27,.03-8.28,2.47-11.94,1.68-2.52,3.29-5.08,4.91-7.64,.71-1.12,1.72-1.73,2.95-2.2,3.82-1.47,7.81-2.4,11.73-3.51,1.76-.5,3.68-.72,5.61-.38,2.28,.4,4.61,.32,6.91,.83,1.72,.38,3.33,.89,4.67,1.87,2.84,2.08,5.52,4.39,8.26,6.6,2.52,2.04,3.26,4.86,3.43,7.91,.08,1.39,.01,2.78,.01,3.76Z"/><path class="cls-2" d="M176.24,191.82c-4.59,3.64-13.07,2.37-17.81-2.06-1.46-1.36-2.07-3.35-2.53-5.24-1.77-7.36-4.65-14.29-7.69-21.2-1.88-4.27-3.43-8.68-3.13-13.62,.22-3.66-1.23-7.24-1.91-10.86-.45-2.4-.83-4.78,.21-7.17,1.18-2.72,4.53-4.87,7.46-4.79,4.03,.12,7.64,1.07,9.95,4.71,1.31,2.06,2.19,4.36,2.88,6.68,1.33,4.51,2.96,8.94,3.64,13.61,.39,2.7,.57,5.43,.69,8.17,.27,6.31-.57,12.53-1.09,18.78-.24,2.9,1.14,5.55,1.75,8.36,.87-1.26,1.19-2.59,1.34-3.97,.91-8.36,2.03-16.7,2.65-25.08,.39-5.22,.9-10.5,.12-15.73-.75-5.09-2.68-9.56-6.7-13.08-1.84-1.61-3.66-3.13-5.77-4.38-1.86-1.1-3.07-2.76-2.75-5.07,.31-2.28,1.83-3.54,3.96-4.17,1.6-.47,3.19-.61,4.87-.48,2.42,.19,4.53,1.19,6.66,2.15,1.91,.86,3.76,1.87,5.94,2.97,1.27-3.53,3.86-5.61,7.44-6.43,2.99-.69,5.46,.98,8.08,5.51,3.26-.3,6.65-.45,9.26,2.32v-.02c2.28,5.57,.61,7.9-4.64,10.27-4.53,2.05-9.36,3.05-14.13,4.3-4.9,1.28-6.61,1.35-7.46,8.61-.44,3.76-.33,7.51-.2,11.28,.18,5.02-.2,10.03-.64,15.03-.23,2.63-.29,5.27-.03,8.01,1.12-3.15,2.19-6.31,3.36-9.44,1.94-5.19,3.19-10.65,6.32-15.36,3.47-5.21,7.6-9.75,12.85-13.22,.46-.3,.91-.62,1.4-.86,2.86-1.38,4.74-.34,5.08,2.85,.17,1.56,.2,3.13-.03,4.7-1.09,7.24-2.39,14.41-6.84,20.53-2.9,3.99-5.88,7.9-9.27,11.5-3.33,3.54-6.87,6.84-10.51,10.05-.83,.73-1.75,1.32-2.75,1.79l-.04,.03Zm1.73-56.78c.08-.87-.37-1.31-1.17-1.44-.85-.15-1.35,.3-1.53,1.07-.19,.8,.11,1.39,.98,1.53,.92,.15,1.48-.28,1.72-1.15Zm18-8.12c-.03-.86-.4-1.53-1.29-1.65-.87-.11-1.24,.52-1.31,1.29-.08,.81,.31,1.38,1.12,1.49,.79,.1,1.34-.27,1.48-1.13Zm-29.41-5.79c.6,1.12,1.32,1.81,2.46,1.15,.81-.47,.88-1.4,.17-1.99-1-.83-1.86-.39-2.63,.85Zm15.65,7.93c.58-.86,.67-1.56,.05-2.29-1.2-.49-2.1-.09-2.13,1.18-.04,1.27,.97,1.38,2.08,1.11Zm-10.83-4.12c-.14,.96-.23,2.02,.97,2.17,1.37,.17,1.55-.88,1.42-2.03-.67-.54-1.34-.72-2.39-.14Zm15.65-1.91c.87-.16,1.36-.59,1.68-1.26-.01-.77-.24-1.42-1.1-1.49-.63-.05-1.26,.2-1.53,.83-.37,.88,.08,1.46,.95,1.92Zm3.13,6.52c-1.21,.3-2.22,.63-1.77,2.01,.23,.71,1.03,1.12,1.73,.68,1.08-.69,.99-1.62,.04-2.69Z"/><path class="cls-2" d="M111.18,523.76c-2.84,5.13-11.15,7.22-17.23,4.97-1.87-.69-3.2-2.29-4.35-3.86-4.47-6.11-9.8-11.39-15.27-16.6-3.38-3.22-6.51-6.69-8.13-11.36-1.21-3.47-3.92-6.21-5.94-9.29-1.34-2.04-2.6-4.09-2.57-6.7,.04-2.96,2.3-6.24,5.04-7.29,3.76-1.44,7.46-1.96,11,.51,2,1.4,3.7,3.18,5.23,5.05,2.96,3.65,6.18,7.11,8.6,11.16,1.4,2.34,2.62,4.79,3.78,7.28,2.68,5.72,4.3,11.78,6.23,17.75,.9,2.77,3.19,4.68,4.83,7.04,.32-1.49,.1-2.85-.29-4.19-2.38-8.06-4.56-16.19-7.22-24.16-1.65-4.96-3.22-10.03-5.94-14.56-2.65-4.4-6.16-7.79-11.23-9.49-2.32-.78-4.59-1.48-7.01-1.82-2.14-.3-3.89-1.37-4.49-3.62-.59-2.23,.32-3.97,2.05-5.37,1.29-1.05,2.71-1.79,4.31-2.32,2.31-.76,4.64-.65,6.98-.58,2.1,.06,4.19,.28,6.62,.45-.19-3.75,1.4-6.67,4.39-8.8,2.5-1.79,5.41-1.2,9.58,1.97,2.89-1.54,5.97-2.98,9.44-1.43h-.02c4.26,4.25,3.62,7.04-.31,11.25-3.39,3.63-7.47,6.42-11.38,9.41-4.02,3.07-5.58,3.79-3.57,10.82,1.04,3.64,2.59,7.06,4.16,10.48,2.1,4.57,3.68,9.33,5.2,14.12,.8,2.51,1.76,4.98,3.06,7.4-.18-3.33-.41-6.67-.54-10-.2-5.53-1.16-11.06-.08-16.61,1.19-6.15,3.26-11.93,6.76-17.15,.31-.45,.6-.92,.96-1.33,2.1-2.38,4.24-2.14,5.78,.67,.75,1.38,1.39,2.81,1.78,4.35,1.78,7.11,3.34,14.22,1.6,21.59-1.14,4.8-2.38,9.55-4.13,14.18-1.71,4.55-3.71,8.96-5.83,13.32-.48,.99-1.11,1.89-1.84,2.71l-.03,.05Zm-20.28-53.06c-.26-.83-.85-1.06-1.63-.88-.84,.19-1.13,.8-1,1.57,.13,.81,.64,1.24,1.49,1.03,.9-.21,1.26-.82,1.14-1.73Zm13.48-14.42c-.36-.78-.96-1.26-1.83-1.02-.84,.23-.94,.96-.72,1.69,.24,.78,.82,1.16,1.61,.94,.77-.21,1.13-.76,.94-1.61Zm-29.37,5.98c.98,.8,1.91,1.16,2.71,.11,.56-.74,.27-1.63-.61-1.9-1.24-.38-1.87,.36-2.1,1.79Zm17.5,1.29c.2-1.02,.01-1.7-.83-2.13-1.29,0-1.97,.73-1.52,1.91,.45,1.18,1.42,.9,2.35,.22Zm-11.58,.37c.24,.94,.56,1.95,1.73,1.63,1.33-.37,1.09-1.41,.53-2.42-.82-.24-1.51-.15-2.25,.79Zm13.71-7.79c.74-.48,1.03-1.07,1.06-1.81-.31-.7-.77-1.22-1.59-.95-.61,.2-1.09,.67-1.09,1.35,0,.95,.63,1.32,1.62,1.41Zm5.4,4.81c-1,.74-1.81,1.44-.86,2.53,.49,.56,1.38,.64,1.85-.04,.73-1.05,.29-1.87-1-2.49Z"/><path class="cls-2" d="M192.89,88.11c-1.26,2.97-3.16,5.54-5.69,7.68-2.56,2.17-5.47,3.29-8.77,3.19-1.68-.05-2.8,.59-3.87,1.78-1.76,1.97-3.44,4.02-5.36,5.85-2.8,2.66-6.78,3.16-10.1,1.18-1.82-1.08-2.75-2.76-3-4.83-.37-3.08,.52-5.91,1.66-8.7,.35-.87,.96-1.64,1.12-2.72-1.53-.97-3.38-1.27-4.98-2.11-2.52-1.32-4.33-3.25-5.19-5.99-.6-1.92-.18-3.59,1.2-5.07,2.85-3.05,6.43-5,10.2-6.53,2.47-1.01,5.09-.31,7.61,.29,.79,.19,1.56,.45,2.61,.76,.12-1.19,.26-2.3,.34-3.41,.15-2.11,.49-4.2,1.19-6.18,1.19-3.34,3.87-5.31,6.79-7.01,.41-.24,.85-.42,1.28-.63,2.76-1.42,4.53-1.12,6.9,.83,2.39,1.97,4.11,4.3,4.85,7.34,.14,.58,.29,1.19,.75,1.65,.38,.27,.78,.15,1.18,.08,4.09-.8,8.1-.29,12.07,.77,1.39,.37,2.44,1.2,3.27,2.3,2.25,2.97,3.54,6.36,4.41,9.96,.58,2.38-.32,4.2-1.99,5.61-4.93,4.17-10.44,6.24-16.94,4.15-.44-.14-.89-.36-1.51-.23Z"/><path class="cls-2" d="M87.24,424.19c-1.59,4.29-4.11,8.05-7.56,11.26-3.48,3.24-7.53,5.02-12.22,5.1-2.38,.04-3.93,1.02-5.36,2.78-2.37,2.91-4.6,5.92-7.21,8.64-3.79,3.95-9.4,4.93-14.24,2.34-2.65-1.42-4.08-3.73-4.57-6.65-.73-4.34,.35-8.41,1.78-12.44,.44-1.26,1.25-2.39,1.41-3.93-2.24-1.28-4.87-1.57-7.2-2.66-3.65-1.7-6.34-4.31-7.74-8.14-.98-2.67-.5-5.07,1.36-7.26,3.83-4.51,8.78-7.5,14.01-9.93,3.43-1.59,7.19-.78,10.8-.1,1.13,.21,2.23,.54,3.75,.9,.09-1.69,.22-3.27,.25-4.85,.07-3,.41-5.98,1.28-8.84,1.47-4.81,5.13-7.78,9.16-10.38,.56-.36,1.18-.64,1.77-.98,3.81-2.19,6.34-1.89,9.83,.72,3.51,2.63,6.11,5.82,7.35,10.07,.24,.82,.48,1.67,1.16,2.29,.55,.35,1.11,.17,1.67,.03,5.74-1.4,11.45-.95,17.16,.3,1.99,.43,3.53,1.55,4.78,3.05,3.38,4.06,5.43,8.78,6.91,13.83,.98,3.34-.17,5.97-2.45,8.08-6.71,6.24-14.38,9.53-23.73,6.99-.64-.17-1.28-.45-2.15-.23Z"/><path class="cls-2" d="M16.35,221.48c-3.51,1.74-4.02,1.66-6.87-1.07-.6-.57-1.15-1.23-1.84-1.68-3.25-2.18-2.72-5.7-3.46-8.85,2.66,1.42,4.67,3.8,8.27,3.84-1.93-2.14-4.06-3.46-5.55-5.45-1.06-1.41-1.64-2.8-1.27-4.61,.41-2.05,.64-4.14,.94-6.21,.11-.75,.36-1.42,1.16-1.91l1.13,.92c.12-.13,.35-.25,.35-.38-.01-.82-.2-1.68,.46-2.36,2.55-2.61,4.19-5.89,6.51-8.67,1.38-1.65,1.85-1.5,2.6,.52,.57,1.53,.51,3.32,1.93,4.64,.43-1.43-.05-2.77-.28-4.04-.25-1.41,.11-2.51,1.03-3.41,2.23-2.18,4.54-4.28,6.84-6.38,.76-.7,1.49-.54,2.16,.24,1.89,2.21,3.79,4.4,5.91,6.42,1.24,1.18,.68,4.01-.8,5.14-1.66,1.26-3.35,2.48-5.03,3.73-.5,.37-1.01,.73-1.45,1.15-.67,.66-.68,1.47-.41,2.32,.33,.99,1.16,1.13,2.02,1.12,2.05,0,3.69-.93,4.61-2.71,1.32-2.55,3.28-4.85,3.24-8.29,2.63,2.32,3.64,5.03,4.05,7.93,.47,3.35,.13,6.68-1.33,9.79-1.24,2.63-2.36,5.29-3.19,8.08-.87,2.91-2.82,4.37-5.98,4.53-2.47,.13-4.95,.37-7.49,.33q1.25,1.67,10.72,.81c-.18,.89-.72,1.32-1.46,1.73-.91,.5-1.91,1.05-2.51,1.84-2.26,2.99-5.1,2.2-7.94,1.37-.88-.26-1.68-.8-2.53-1.21-1.16,1.44-.43,2.98-.28,4.46,.08,.81,.65,1.64-.53,2.07-1.11,.4-2.47-.13-2.79-1.25-.43-1.47-.64-2.99-.95-4.51Z"/><path class="cls-2" d="M241.32,63.02c-1.24,5.28-1.79,5.76-7.21,6.4-1.14,.13-2.33,.15-3.42,.47-5.2,1.55-8.5-2.14-12.5-4.13,3.87-1.59,8.18-1.63,11.42-5.44-4,.17-7.29,1.27-10.72,1.11-2.43-.12-4.44-.73-6.05-2.71-1.83-2.25-3.86-4.34-5.8-6.49-.71-.78-1.2-1.64-1.01-2.93l1.98-.39c-.03-.24,.04-.6-.1-.71-.89-.71-1.97-1.27-2.11-2.57-.54-5.03-2.59-9.69-3.5-14.62-.55-2.94,.03-3.3,2.86-2.32,2.14,.74,3.99,2.39,6.66,2.05-1.15-1.73-3-2.39-4.56-3.27-1.73-.98-2.58-2.34-2.73-4.12-.35-4.31-.56-8.63-.77-12.95-.07-1.43,.74-2.06,2.17-2.09,4.03-.07,8.05-.15,12.08-.63,2.35-.28,4.89,2.82,4.78,5.39-.12,2.89-.31,5.78-.46,8.67-.04,.85-.12,1.72-.05,2.57,.11,1.3,.97,2.03,2.12,2.48,1.35,.53,2.23-.25,2.98-1.17,1.8-2.2,2.27-4.77,1.19-7.32-1.56-3.67-2.28-7.79-5.99-10.78,4.8-.75,8.59,.56,12.05,2.69,3.99,2.46,7.25,5.76,9.27,10.08,1.71,3.64,3.56,7.19,5.81,10.55,2.34,3.49,2.18,6.88-.44,10.39-2.05,2.75-3.98,5.61-6.28,8.29q2.89,.14,10.35-10.73c.8,.98,.77,1.94,.55,3.09-.27,1.41-.57,2.96-.25,4.31,1.19,5.06-2.16,7.39-5.55,9.69-1.05,.72-2.34,1.09-3.53,1.63,.51,2.51,2.8,3.1,4.51,4.23,.94,.62,2.33,.76,1.74,2.39-.55,1.54-2.32,2.52-3.81,1.87-1.94-.84-3.76-1.96-5.65-2.97Z"/><path class="cls-2" d="M133.02,371.43c1.98,5.05,1.81,5.75-2.3,9.36-.86,.76-1.83,1.45-2.55,2.33-3.39,4.23-8.21,3.08-12.63,3.71,2.28-3.51,5.81-5.99,6.3-10.97-3.19,2.41-5.27,5.19-8.19,7.01-2.07,1.29-4.07,1.92-6.52,1.21-2.78-.81-5.64-1.37-8.46-2.04-1.03-.24-1.92-.67-2.5-1.83l1.41-1.45c-.16-.18-.31-.51-.48-.53-1.14-.08-2.35,.08-3.2-.91-3.3-3.83-7.64-6.5-11.2-10.03-2.12-2.11-1.86-2.73,1.03-3.54,2.18-.61,4.65-.3,6.64-2.11-1.93-.77-3.83-.26-5.62-.1-1.98,.18-3.46-.46-4.59-1.84-2.74-3.34-5.37-6.78-8-10.21-.87-1.14-.56-2.12,.6-2.95,3.28-2.35,6.54-4.71,9.58-7.39,1.77-1.57,5.63-.46,7,1.72,1.55,2.45,3.03,4.93,4.55,7.39,.45,.73,.88,1.48,1.42,2.14,.83,1.01,1.95,1.12,3.16,.84,1.41-.33,1.69-1.47,1.79-2.66,.23-2.83-.84-5.21-3.19-6.7-3.37-2.13-6.3-5.11-11.06-5.46,3.52-3.35,7.39-4.43,11.44-4.64,4.68-.24,9.24,.61,13.36,3.01,3.48,2.02,7.02,3.89,10.78,5.37,3.91,1.54,5.7,4.42,5.55,8.8-.12,3.43-.08,6.88-.45,10.39q2.46-1.53,2.41-14.71c1.21,.36,1.74,1.15,2.21,2.22,.58,1.31,1.22,2.76,2.24,3.69,3.85,3.48,2.42,7.3,.95,11.13-.46,1.19-1.3,2.23-1.98,3.35,1.84,1.78,4.07,.95,6.12,.92,1.13-.02,2.35-.7,2.79,.98,.42,1.58-.48,3.39-2.07,3.71-2.07,.41-4.21,.53-6.34,.77Z"/><path class="cls-2" d="M149.67,9.15c1.86,5,3.56,10.08,5.63,14.99,2.53,6.01,5.15,12,8.16,17.78,1.94,3.73,3.93,7.43,5.65,11.28,1.05,2.34,.65,3.39-1.66,4.6-2.56,1.34-5.12,2.48-8.17,2.06-2.36-.32-4.06-1.24-5.16-3.45-1.27-2.55-1.9-5.13-1.6-8,.23-2.17,.07-4.38,.29-6.55,.21-2.07-.68-3.45-2.29-4.51-1.11-.73-2.24-1.43-3.4-2.07-3.73-2.06-5.27-4.71-4.17-8.66,.93-3.32-.13-5.53-2.6-7.45-.22-.17-.39-.42-.6-.61-1.54-1.45-3.28-2.86-2.68-5.3,.68-2.8,1.56-5.57,4.53-6.88,1.38-.61,2.66-1.44,4.29-1.52,1.12-.05,1.83,.13,2.26,1.19,.44,1.06,.95,2.1,1.43,3.14l.09-.03Z"/><path class="cls-2" d="M144.9,121.46c-3.16-1.13-4-3.88-5.3-6.06-1.35-2.26-2.25-4.79-3.69-7.22-.51,4.52-1.27,8.95-2.07,13.37-.79,4.37-.56,9.1-4,12.62-1.97-.29-1.75-1.89-2.04-3.1-1.26-5.27-1.5-10.65-1.28-16.43-1.79,1.62-2.61,3.39-3.46,5.11-1.37,2.76-3.3,5.1-5.17,7.5-.51,.65-1.16,1.37-2.17,.92-1.07-.47-.75-1.41-.62-2.22,.54-3.38,1.13-6.75,1.66-10.13,.13-.79,.63-1.58,.02-2.53-2.65,.83-3.82,4.5-7.28,4.06-.53-5.02,3.74-7.84,5.18-12.15-2.65,.55-4.82,1.59-7.02,2.55-.89,.39-1.79,.8-2.73,1.04-1.51,.38-2.38-.52-1.89-2.03,.46-1.39,1.3-2.59,2.31-3.69,3.29-3.58,7.64-5.22,12.12-6.34,6.37-1.59,12.88-2.53,19.41-3.28,1.67-.19,2.51,.41,3.06,1.72,2.81,6.65,4.89,13.51,5.72,20.71,.22,1.86-.13,3.57-.78,5.57Z"/><path class="cls-2" d="M186.71,474.36c4.78-2.25,8.77-.12,12.65,.86,4.02,1.02,7.83,2.84,12.14,3.94-4.45-5.6-8.53-11.39-12.56-17.21-3.98-5.75-9.49-10.76-9.58-18.52,2.51-1.86,4.05,.16,5.72,1.19,7.27,4.48,13.52,10.21,19.7,16.89,.2-3.8-.86-6.69-1.81-9.55-1.54-4.59-2-9.36-2.58-14.1-.16-1.3-.22-2.81,1.39-3.44,1.71-.66,2.4,.74,3.16,1.79,3.15,4.37,6.25,8.78,9.41,13.15,.74,1.02,1.05,2.46,2.79,2.84,2.03-3.88-.75-9.27,3.6-12.62,6.17,5,4.55,12.9,7.73,19.3,2.34-3.57,3.6-7.14,4.99-10.65,.56-1.42,1.11-2.88,1.89-4.19,1.26-2.1,3.23-2.06,4.36,.17,1.04,2.06,1.43,4.33,1.52,6.69,.31,7.65-2.71,14.32-6.47,20.55-5.34,8.85-11.54,17.15-18,25.24-1.65,2.07-3.25,2.34-5.33,1.49-10.53-4.3-20.47-9.63-29.41-16.73-2.31-1.84-3.83-4.13-5.32-7.09Z"/><path class="cls-2" d="M267.1,336.26c-2.68-.96-3.4-3.29-4.5-5.14-1.15-1.92-1.91-4.07-3.14-6.13-.43,3.83-1.08,7.6-1.76,11.35-.67,3.71-.47,7.72-3.39,10.72-1.67-.25-1.49-1.6-1.73-2.63-1.07-4.48-1.27-9.04-1.09-13.95-1.52,1.37-2.22,2.88-2.94,4.34-1.16,2.34-2.8,4.33-4.39,6.37-.43,.55-.99,1.16-1.84,.78-.91-.4-.63-1.19-.52-1.89,.46-2.87,.96-5.73,1.41-8.61,.11-.67,.54-1.34,.01-2.15-2.25,.71-3.24,3.82-6.18,3.45-.45-4.26,3.17-6.66,4.4-10.31-2.25,.47-4.09,1.35-5.96,2.16-.76,.33-1.52,.68-2.32,.88-1.28,.32-2.02-.44-1.6-1.72,.39-1.18,1.1-2.2,1.96-3.13,2.8-3.04,6.49-4.44,10.29-5.38,5.41-1.35,10.94-2.15,16.49-2.78,1.42-.16,2.13,.35,2.6,1.46,2.38,5.65,4.15,11.47,4.86,17.59,.18,1.58-.11,3.04-.67,4.73Z"/><path class="cls-2" d="M50.95,287.48c1.59-1.13,3.17-2.44,4.91-3.46,2.72-1.59,4.66-.61,4.73,2.47,.05,2.1-.09,4.09-1.1,6.24-3.22,6.88-7.22,12.95-13.74,17.1-.34,.21-.55,.63-.84,.98,1.12,.64,2.23,.87,3.45,.71,1.01-.14,2.03-.24,3.04-.23,3.05,.04,4.77,1.33,5.25,3.87,.35,1.85-.96,3.64-3.41,4.93-3.26,1.72-6.76,2.8-10.37,2.99-3.96,.21-6.38,1.63-6.79,5.81-.21,2.17-1.62,2.52-3.5,1.97-2.05-.6-3.2-2.2-2.05-3.93,2.89-4.36,.53-7.44-2.03-10.56-1.73-2.11-2.63-2.84-5.98-5.66-.31-.26-.91-1.16-1.13-1.5-1.74-2.67-3.42-4.17-4.26-7.24-.34-1.24-.18-2.89,.97-3.62,1.17-.75,2.66-.94,4.13-.07,2.74,1.62,5.51,3.18,7.95,5.17,1.46-1.04,.61-2.17,.45-3.26-.63-4.14-1.23-8.29,1.04-12.19,2.39-4.1,3.65-5.06,8.03-.97,.81-2.36,1.14-4.82,2.71-6.81,1.05-1.33,2.28-2.21,3.91-2.59,2.46-.56,3.6,.07,3.99,2.57,.38,2.42,.45,4.89,.65,7.28Z"/><path class="cls-2" d="M284.93,177.17c1.59-1.13,3.17-2.44,4.91-3.46,2.72-1.59,4.66-.61,4.73,2.47,.05,2.1-.09,4.09-1.1,6.24-3.22,6.88-7.22,12.95-13.74,17.1-.34,.21-.55,.63-.84,.98,1.12,.64,2.23,.87,3.45,.71,1.01-.14,2.03-.24,3.04-.23,3.05,.04,4.77,1.33,5.25,3.87,.35,1.85-.96,3.64-3.41,4.93-3.26,1.72-6.76,2.8-10.37,2.99-3.96,.21-6.38,1.63-6.79,5.81-.21,2.17-1.62,2.52-3.5,1.97-2.05-.6-3.2-2.2-2.05-3.93,2.89-4.36,.53-7.44-2.03-10.56-1.73-2.11-2.63-2.84-5.98-5.66-.31-.26-.91-1.16-1.13-1.5-1.74-2.67-3.42-4.17-4.26-7.24-.34-1.24-.18-2.89,.97-3.62,1.17-.75,2.66-.94,4.13-.07,2.74,1.62,5.51,3.18,7.95,5.17,1.46-1.04,.61-2.17,.45-3.26-.63-4.14-1.23-8.29,1.04-12.19,2.39-4.1,3.65-5.06,8.03-.97,.81-2.36,1.14-4.82,2.71-6.81,1.05-1.33,2.28-2.21,3.91-2.59,2.46-.56,3.6,.07,3.99,2.57,.38,2.42,.45,4.89,.65,7.28Z"/><path class="cls-2" d="M84.86,240.42c2.92,.48,4.27-1.36,5.72-2.66,5.79-5.17,12.92-8.5,18.69-13.7,1.2-1.08,2.71-1.45,3.88,.28,1.03,1.53,2.54,2.91,.7,4.94-4.18,4.63-8.17,9.41-12.84,13.6-4.03,3.61-8.29,7.02-12.46,12.22,7.23-2.7,12.85-6.03,18.4-9.45,3.84-2.37,7.64-4.82,11.99-6.18,2.01-.63,4.18-2.51,6.06,.21,1.49,2.17,1.05,5.76-1.11,7.77-2.76,2.58-5.48,5.29-8.6,7.37-6.09,4.05-12.13,8.19-19.14,10.76-5.65,2.07-11.39,3.21-17.15,2.16-4.87-.89-8.39,.56-11.68,3.68-.55,.52-1.03,1.12-1.61,1.6-4.09,3.4-5.44,2.97-8.11-1.79-1.18-2.1-1.08-3.45,.85-4.76,2.18-1.49,4.37-2.98,6.5-4.54,1.77-1.29,2.74-2.58,1.87-5.21-2.23-6.72-.15-12.63,4.67-17.58,7.91-8.13,15.94-16.14,23.84-24.28,1.8-1.86,3.33-2.69,5.83-1.04,3.82,2.52,4.27,4.09,1.01,7.54-4.93,5.22-10.08,10.25-15.1,15.39-.88,.9-2.02,1.69-2.19,3.66Z"/><path class="cls-2" d="M274.1,104.75c-.61,2.48,.88,3.76,1.9,5.1,4.06,5.33,6.44,11.69,10.53,17,.85,1.11,1.07,2.43-.5,3.32-1.39,.79-2.67,1.99-4.3,.27-3.7-3.91-7.55-7.67-10.83-11.97-2.84-3.71-5.48-7.61-9.68-11.54,1.83,6.41,4.32,11.46,6.89,16.47,1.78,3.47,3.64,6.9,4.51,10.73,.41,1.78,1.88,3.77-.59,5.2-1.97,1.14-5.03,.51-6.61-1.48-2.03-2.55-4.19-5.07-5.76-7.9-3.08-5.52-6.22-10.99-7.97-17.2-1.4-5-1.99-10.01-.7-14.9,1.09-4.13,.08-7.25-2.38-10.3-.41-.51-.89-.96-1.27-1.49-2.65-3.75-2.19-4.88,2.09-6.86,1.89-.87,3.04-.69,4.04,1.05,1.14,1.98,2.27,3.96,3.46,5.9,.99,1.61,2.03,2.53,4.36,1.96,5.94-1.47,10.88,.72,14.81,5.21,6.46,7.35,12.81,14.8,19.28,22.15,1.48,1.68,2.09,3.05,.5,5.09-2.42,3.12-3.8,3.4-6.56,.36-4.16-4.6-8.14-9.36-12.22-14.03-.72-.82-1.32-1.85-3.01-2.14Z"/><path class="cls-2" d="M164,413.45c-3.06,1.77-2.9,4.49-3.26,6.79-1.42,9.17-5.47,17.65-6.84,26.83-.29,1.91-1.39,3.4-3.79,2.68-2.11-.63-4.55-.76-4.4-4.02,.34-7.44,.4-14.89,1.53-22.3,.98-6.39,2.33-12.77,2.22-20.73-4.63,7.98-7.28,15.32-9.81,22.69-1.75,5.1-3.39,10.25-6.37,14.81-1.38,2.11-1.96,5.49-5.75,4.4-3.02-.87-5.34-4.52-4.87-8.02,.59-4.47,1.04-9.05,2.34-13.33,2.55-8.37,4.98-16.76,9.49-24.46,3.64-6.2,8.07-11.6,14.19-15.01,5.16-2.88,7.31-6.88,7.98-12.27,.11-.9,.1-1.81,.27-2.7,1.19-6.24,2.76-6.87,8.84-4.5,2.68,1.04,3.61,2.36,2.83,5.04-.88,3.03-1.77,6.06-2.55,9.12-.65,2.53-.58,4.46,2.23,6.23,7.16,4.51,9.72,11.54,9.04,19.77-1.13,13.51-2.46,26.99-3.57,40.5-.25,3.08-1.03,5.01-4.59,5.39-5.44,.58-7.04-.53-6.65-6.2,.59-8.57,1.52-17.11,2.26-25.66,.13-1.5,.58-3.09-.76-5.05Z"/><path class="cls-2" d="M128.7,274.29c-4-2.55-5.97-7.12-9.86-9.83-1.13-.79-.69-2,.5-2.71,2-1.2,3.73-.61,5.12,1,2.39,2.75,4.8,5.5,6.94,8.44,1.01,1.38,1.97,2.67,3.62,3.74,.01-2.74-.04-5.28,.05-7.81,.4-10.65,4.62-19.72,11.64-27.55,2.77-3.09,4.53-2.73,6.45,1.01,2.6,5.07,3.65,10.57,3.87,16.17,.23,6.09-3.48,10.32-7.58,14.28-2.4,2.31-5.33,4.02-7.34,6.78-1.79,2.46-2.94,4.89-1.37,7.9,.36,.69,.54,1.5,.69,2.28,.17,.88-.25,1.56-1.08,1.9-.81,.33-1.69,.25-2.15-.48-.95-1.47-1.73-3.05-2.58-4.58-2.84-.78-3.31-3.41-4.56-5.54-.96-1.63-.66-3.8-2.36-5.01Z"/><path class="cls-2" d="M16.42,534.19c-3.45-4.92-3.55-11.22-6.8-16.27-.94-1.47,.16-2.68,1.89-2.94,2.91-.44,4.66,1.09,5.51,3.65,1.46,4.38,2.96,8.76,4.05,13.24,.51,2.1,1.01,4.08,2.43,6.13,1.34-3.2,2.5-6.2,3.83-9.12,5.61-12.28,14.93-20.86,26.93-26.64,4.73-2.28,6.62-1.01,7.06,4.3,.59,7.19-.83,14.14-3.28,20.79-2.67,7.24-9.05,10.4-15.77,13.06-3.92,1.55-8.18,2.13-11.87,4.4-3.28,2.01-5.8,4.31-5.41,8.59,.09,.99-.09,2.02-.29,3.01-.23,1.12-1.04,1.7-2.18,1.7-1.11,0-2.1-.53-2.29-1.6-.4-2.18-.55-4.41-.81-6.61-2.95-2.29-2.23-5.59-2.66-8.68-.33-2.36,1.07-4.76-.34-7.01Z"/><path class="cls-2" d="M211.8,115.6c-4-2.55-5.97-7.12-9.86-9.83-1.13-.79-.69-2,.5-2.71,2-1.2,3.73-.61,5.12,1,2.38,2.75,4.8,5.5,6.94,8.44,1.01,1.38,1.97,2.67,3.62,3.74,.01-2.74-.04-5.28,.05-7.81,.4-10.65,4.62-19.72,11.64-27.55,2.77-3.09,4.53-2.73,6.45,1.01,2.6,5.07,3.65,10.57,3.87,16.16,.23,6.09-3.47,10.32-7.58,14.28-2.4,2.31-5.33,4.02-7.34,6.78-1.79,2.46-2.94,4.89-1.37,7.9,.36,.69,.54,1.5,.69,2.28,.17,.88-.25,1.56-1.08,1.9-.81,.33-1.69,.25-2.15-.48-.95-1.47-1.73-3.05-2.58-4.58-2.84-.78-3.31-3.41-4.56-5.54-.96-1.63-.66-3.8-2.36-5.01Z"/><path class="cls-2" d="M270.89,10.95c4.77-2.35,10.31-1.59,15.17-3.75,1.41-.63,2.33,.5,2.32,2.06-.01,2.61-1.58,3.94-3.94,4.34-4.03,.69-8.08,1.4-12.14,1.75-1.91,.16-3.71,.33-5.7,1.3,2.62,1.61,5.09,3.03,7.47,4.59,9.99,6.58,16.25,15.91,19.68,27.2,1.35,4.45-.01,5.94-4.73,5.6-6.38-.45-12.28-2.64-17.77-5.69-5.98-3.32-7.89-9.34-9.3-15.58-.83-3.65-.76-7.46-2.24-10.99-1.32-3.14-2.99-5.67-6.79-5.91-.88-.06-1.76-.35-2.6-.66-.95-.35-1.35-1.14-1.2-2.14,.15-.97,.75-1.77,1.71-1.79,1.96-.05,3.93,.11,5.9,.19,2.4-2.27,5.2-1.19,7.97-1.16,2.12,.03,4.03,1.58,6.19,.65Z"/><path class="cls-2" d="M120.29,73.54c5.09-2.29,10.51-2.91,16.03-2.38,2.67,.25,3.35,1.49,2.81,4.19-1.01,5.01-3.76,8.16-8.81,10.02-5.23,1.93-10.02,1.5-14.97-.26-3.62-1.29-4.1-3.17-1.5-6,1.91-2.08,3.61-4.44,6.44-5.56Z"/><path class="cls-2" d="M270.47,349.57c1.79-9.15,6.16-17.13,12.19-24.16,2.91-3.4,5.26-3.13,8.41,.2,5.86,6.2,7.51,12.98,5.17,21.67-2.42,8.99-7.61,15.11-14.78,20.16-5.25,3.69-8.27,2.53-9.62-3.73-.99-4.61-2.58-9.2-1.38-14.14Z"/><path class="cls-2" d="M256.64,563.13c12.36-1.17,24.22,1.42,35.46,6.47,5.44,2.44,5.98,5.54,2.91,10.82-5.71,9.83-13.76,14.49-25.74,14.78-12.4,.3-22.18-4.02-31.33-11.28-6.7-5.31-6.35-9.61,1.14-13.7,5.52-3.01,10.79-6.77,17.55-7.1Z"/><path class="cls-2" d="M50.75,143.43c1.87-.59,3.15,1.02,4.8,1.34,10.86,2.13,14.23,5.93,14.74,16.46,.34,7.06-9.78,15.9-17.07,14.59-6.49-1.16-11.21-3.13-12.26-13.03-.16-1.46-.24-2.94-.59-4.35-.76-3.08,.41-5.5,3.03-6.66,3.86-1.7,5.91-4.65,7.35-8.35Z"/><path class="cls-2" d="M230.5,405.54c1.48-.46,2.5,.81,3.8,1.06,8.61,1.69,11.28,4.7,11.69,13.04,.27,5.6-7.75,12.6-13.53,11.57-5.14-.92-8.88-2.48-9.72-10.33-.12-1.15-.19-2.33-.47-3.45-.61-2.44,.32-4.36,2.4-5.28,3.06-1.34,4.69-3.68,5.83-6.62Z"/><path class="cls-2" d="M80.55,89.73c5.28-8.67,12.13-13.17,22.79-11.1-1.69,4.19-2.71,7.89-4.56,11.08-3.41,5.87-5.99,11.21-3.46,18.65,1.85,5.43-3.19,9.75-7.47,6.31-8.68-6.97-16.28-3.44-24.72-.29-5.39,2.01-8.1-.94-5.57-6.32,4.72-10.03,7.8-19.7,2.52-30.34-.75-1.52-.6-3.58,1.21-4.63,1.67-.97,3.05-.06,4.58,.83,6.31,3.64,10.16,9.79,14.68,15.82Z"/><path class="cls-2" d="M222.48,288.64c10.72-2.84,19.51-1.2,26.35,8.49-4.5,2.03-8.11,4.17-11.97,5.28-7.13,2.05-13.2,4.3-16.83,12.08-2.65,5.67-9.88,5.27-10.65-.67-1.57-12.05-10.23-15.01-19.25-18.92-5.76-2.49-5.68-6.87,.38-9.19,11.3-4.33,21.04-9.63,24.92-22,.55-1.77,2.23-3.27,4.46-2.74,2.05,.49,2.45,2.26,2.99,4.12,2.22,7.64,.6,15.39-.39,23.56Z"/><path class="cls-2" d="M80.27,552.01c10.79-2.56,19.54-.69,26.12,9.18-4.55,1.91-8.21,3.95-12.11,4.96-7.18,1.86-13.3,3.95-17.14,11.63-2.8,5.6-10.02,5.01-10.63-.95-1.25-12.09-9.83-15.28-18.75-19.42-5.7-2.64-5.49-7.01,.62-9.18,11.41-4.04,21.28-9.07,25.49-21.34,.6-1.75,2.32-3.21,4.53-2.62,2.04,.55,2.39,2.33,2.88,4.19,2.02,7.69,.2,15.4-1.01,23.54Z"/><path class="cls-2" d="M39.66,144.43c-1.74,.39-3.22,.69-4.69,1.06-4.34,1.08-6.63,4.12-6.24,8.63,.26,3.06,.4,6.09-.46,9.04-1.13,3.85-3.75,6.45-7.37,8.13-3.3,1.53-6.88,2.18-10.29,3.38-.99,.35-2.11,1.05-2.77-.22-.72-1.39-.82-3.17,.56-4.07,.83-.54,1.77-1.21,3.19-1.22,9.06-.04,13.53-4.85,13.34-13.87-.05-2.12-.32-4.21-.15-6.38,.32-4.09,2.65-6.24,6.15-7.57,.99-.37,2.02-.67,3.05-.86,5.12-.96,4.19-1.29,5.67,3.96Z"/><path class="cls-2" d="M142.33,517.42c-2.08,.15-3.84,.24-5.6,.4-5.19,.49-8.37,3.59-8.71,8.86-.23,3.57-.61,7.1-2.12,10.34-1.98,4.24-5.45,6.78-9.92,8.08-4.08,1.19-8.32,1.3-12.46,2.09-1.2,.23-2.62,.84-3.16-.74-.59-1.73-.39-3.8,1.36-4.6,1.06-.48,2.25-1.09,3.9-.85,10.46,1.54,16.46-3.22,17.81-13.66,.32-2.46,.37-4.91,.94-7.38,1.09-4.66,4.15-6.74,8.43-7.65,1.2-.26,2.44-.41,3.67-.46,6.07-.21,5.06-.75,5.85,5.56Z"/><path class="cls-2" d="M297.27,269.33c-1.87,1.36-3.48,2.48-5.03,3.67-4.6,3.52-5.77,8.31-2.98,13.47,1.89,3.5,3.61,7.04,4.1,10.99,.64,5.16-1.14,9.6-4.58,13.46-3.14,3.52-7.07,6.13-10.5,9.31-1,.92-1.97,2.34-3.41,1.16-1.58-1.28-2.61-3.34-1.43-5.13,.71-1.08,1.48-2.35,3.17-3.1,10.76-4.71,13.6-12.73,8.73-23.36-1.15-2.5-2.55-4.85-3.46-7.51-1.72-5.03-.06-8.79,3.43-12.17,.98-.95,2.06-1.83,3.19-2.59,5.59-3.78,4.32-3.69,8.78,1.79Z"/><path class="cls-2" d="M51.94,567.11c-.28,1.24-.53,2.28-.74,3.34-.62,3.12,.63,5.51,3.65,6.63,2.04,.76,4.04,1.59,5.67,3.04,2.13,1.89,3,4.37,2.99,7.2-.02,2.59-.69,5.08-.96,7.64-.08,.74,.03,1.68-.99,1.71-1.11,.04-2.29-.43-2.44-1.6-.1-.7-.24-1.5,.19-2.42,2.72-5.83,.99-10.17-4.86-12.78-1.38-.62-2.8-1.07-4.14-1.84-2.53-1.45-3.21-3.6-2.99-6.25,.06-.75,.18-1.5,.37-2.22,.94-3.58,.44-3.09,4.26-2.44Z"/><path class="cls-2" d="M3.52,339.55c-.35-2.35-.89-4.69-1.02-7.06-.38-6.91,2.48-9.65,9.46-9.28,11.93,.64,17.87,11.4,11.68,21.16-2.58,4.07-12.81,7.76-17,6.1-1.33-.53-1.98-1.63-2.17-3.05-.35-2.62-.77-5.23-1.16-7.84l.21-.03Z"/><path class="cls-2" d="M284.42,94.28c-3.41-2.12-3.16-3.49-1.07-6.05,5.71-6.96,4.88-13.89-1.7-19.38-4.32-3.6-9.29-3.58-13.6,.14-1.27,1.1-2.25,2.56-3.59,3.56-2.47,1.84-4.62,.83-6.17-1.38-1.45-2.06-.36-3.38,1.56-4.58,2.61-1.64,4.52-4.17,7.6-5.32,6.81-2.55,17.89-.21,21.57,4.87,5.96,8.22,5.64,16.74-.92,24.07-1.12,1.25-2.24,2.5-3.66,4.08Z"/><path class="cls-2" d="M175.25,50.42c-2.37-3.98-1.38-5.25,2.12-6.75,9.54-4.09,12.37-11.62,8.55-20.74-2.51-5.98-7.6-8.6-13.99-7.08-1.89,.45-3.67,1.43-5.57,1.73-3.5,.57-5.16-1.61-5.58-4.7-.39-2.87,1.42-3.65,4.03-3.86,3.54-.3,6.84-1.87,10.6-1.41,8.32,1.01,18.42,9.29,19.49,16.44,1.73,11.58-3.12,20.12-13.73,24.14-1.81,.69-3.62,1.37-5.91,2.23Z"/><path class="cls-2" d="M206.37,566.83c3.09-2.18,6.83-4.03,9.54-6.86,7.14-7.46,12.96-15.84,10.54-26.95-1.22-5.59-3.63-10.9-7.81-15.14-2.05-2.08-4.44-3.61-7.23-4.45-8.59-2.59-16.95-2.42-24.92,2.19-2.13,1.23-4.26,2.46-6.92,4-1.6-2.76-2.93-5.05-4.24-7.34-1.06-1.86-.76-3.6,1.3-4.21,7.26-2.16,13.63-6.62,21.71-6.88,11.13-.36,20.23,3.5,27.77,11.17,7.95,8.09,12.29,17.83,11.91,29.43-.09,2.74-.5,5.39-1.76,7.76-3.97,7.47-8.26,14.68-16.14,18.89-2.18,1.17-3.97,3.06-6.08,4.37-3.25,2.02-3.87,1.83-5.94-1.49-.79-1.27-1.95-2.43-1.72-4.49Z"/><path class="cls-2" d="M203.86,553.29c-2.06-2.45-1.53-3.42,.69-4.83,6.03-3.85,7.12-9.29,3.5-15.06-2.37-3.79-6.13-5-10.31-3.25-1.23,.52-2.34,1.38-3.59,1.8-2.32,.78-3.69-.52-4.32-2.57-.59-1.91,.56-2.64,2.31-3.08,2.38-.6,4.44-2.04,7.06-2.15,5.78-.24,13.57,4.26,15.1,9,2.47,7.69,.12,14.04-6.64,17.96-1.15,.67-2.31,1.34-3.77,2.18Z"/><path class="cls-2" d="M120.9,305.66c-1.52-2.75-2.71-6.01-4.8-8.51-5.51-6.58-11.91-12.16-21.31-11.17-4.73,.5-9.34,2-13.23,5.07-1.9,1.5-3.38,3.34-4.34,5.57-2.92,6.86-3.55,13.79-.47,20.79,.82,1.87,1.65,3.75,2.67,6.09-2.43,1.07-4.44,1.96-6.46,2.83-1.63,.71-3.05,.3-3.36-1.46-1.12-6.2-4.23-11.87-3.7-18.57,.72-9.23,4.74-16.4,11.77-21.93,7.41-5.84,15.86-8.53,25.41-7.16,2.26,.33,4.41,.9,6.25,2.16,5.81,3.96,11.38,8.17,14.14,15.06,.76,1.91,2.16,3.56,3.06,5.43,1.37,2.87,1.16,3.37-1.77,4.77-1.12,.54-2.18,1.39-3.87,1.02Z"/><path class="cls-2" d="M110.08,309.7c-2.21,1.48-2.97,.95-3.93-1.01-2.63-5.34-7.03-6.73-12.13-4.27-3.35,1.62-4.69,4.61-3.63,8.23,.31,1.07,.93,2.06,1.16,3.13,.43,1.99-.76,3-2.52,3.34-1.63,.31-2.13-.7-2.33-2.19-.28-2.02-1.28-3.86-1.13-6.03,.33-4.8,4.76-10.83,8.82-11.66,6.58-1.34,11.61,1.18,14.24,7.13,.45,1.02,.89,2.03,1.46,3.32Z"/><g><path class="cls-2" d="M58.47,123.82c2.55,.05,3.55,1.69,2.61,3.68-1.06,2.23-4.76,3.69-7.07,2.8-1.82-.7-2.35-2.55-1.14-4.11,1.52-1.95,3.78-2.09,5.6-2.37Z"/><path class="cls-2" d="M64.44,126.48c.04-2.62,2.74-4.91,5.34-4.53,1.64,.24,2.85,2.03,2.16,3.5-.71,1.51-1.68,2.88-3.32,3.64-2.47,1.15-4.22,.08-4.18-2.61Z"/><path class="cls-2" d="M62.37,137.49c-1.46-.03-2.87-.04-3.23-1.9-.1-.54-.25-1.01,.17-1.49,.98-1.13,1.96-2.24,3.36-2.87,1.25-.57,2.35-.13,3.23,.67,1,.92,.92,2.24,.29,3.25-.84,1.36-1.98,2.56-3.82,2.33Z"/></g><g><path class="cls-2" d="M158.62,277.74c2.01-1.58,3.83-.93,4.35,1.2,.59,2.39-1.35,5.87-3.71,6.64-1.86,.61-3.43-.49-3.48-2.46-.06-2.47,1.6-4.01,2.84-5.38Z"/><path class="cls-2" d="M164.93,276.03c-1.63-2.05-.98-5.54,1.28-6.89,1.42-.85,3.49-.22,3.88,1.35,.4,1.62,.52,3.3-.27,4.92-1.19,2.45-3.22,2.73-4.89,.62Z"/><path class="cls-2" d="M170.29,285.87c-1.15,.9-2.25,1.79-3.7,.58-.42-.35-.83-.63-.81-1.26,.05-1.49,.1-2.97,.79-4.35,.61-1.23,1.74-1.59,2.93-1.52,1.36,.08,2.13,1.16,2.28,2.34,.21,1.58,.08,3.23-1.49,4.22Z"/></g><g><path class="cls-2" d="M7.62,437.44c2.01-1.58,3.83-.93,4.35,1.2,.59,2.39-1.35,5.87-3.71,6.64-1.86,.61-3.43-.49-3.48-2.46-.06-2.47,1.6-4.01,2.84-5.38Z"/><path class="cls-2" d="M9.34,416.27c-1.63-2.05-.98-5.54,1.28-6.89,1.42-.85,3.49-.22,3.88,1.35,.4,1.62,.52,3.3-.27,4.92-1.19,2.45-3.22,2.73-4.89,.62Z"/><path class="cls-2" d="M25.31,444.28c-1.15,.9-2.25,1.79-3.7,.58-.42-.35-.83-.63-.81-1.26,.05-1.49,.1-2.97,.79-4.35,.61-1.23,1.74-1.59,2.93-1.52,1.36,.08,2.13,1.16,2.28,2.34,.21,1.58,.08,3.23-1.49,4.22Z"/></g><path class="cls-2" d="M47.12,58.5c-1.17-1.43-2.74-2.71-4.96-2.39-2.23,.31-4.35,.91-6.29,2.1-3.51,2.15-7.07,4.22-9.85,8.49,.18-2.45,.21-3.88,.4-5.31,.26-2.04-.88-2.55-2.62-2.64-2.6-.14-2.49,2.2-3.28,3.95-1.51-1.3-2.85-2.24-3.92-3.42-2.32-2.54-5.4-3.54-8.57-4.29-3.53-.83-6.08,.58-6.3,3.53-.26,3.64,.54,7.42,3.57,9.46,4.79,3.22,9.35,7.57,16.21,5.98,.37,3.65,.7,6.86,1.11,10.83-2.03-2.07-3.83-3.29-4.73-4.98-1.2-2.25-3.11-2.17-5.07-2.7-2.16-.58-4.11-.34-6.12,.36-1.72,.6-2.15,1.86-1.93,3.52,.48,3.69,2.01,6.57,5.41,8.6,4.09,2.44,8.01,5.03,13.03,4.04,1.39,2.92,.43,5.57,1.15,8.95-1.68-1.56-2.54-2.58-3.61-3.32-3.88-2.69-7.91-4.94-12.98-3.8-1.65,.37-2.5,1.1-2.68,2.95-.36,3.54,.9,7.25,3.88,8.7,4.25,2.06,8.64,3.91,13.59,2.13,.8-.29,1.7-.68,2.71,.13,.67,2.02,1.41,4.18,1.36,6.64-2.15-.09-4.06-.19-5.97-.25-3.1-.08-6.21-.15-9.24,.65-3.25,.85-4.09,3.57-1.75,5.92,1.37,1.38,3.1,2.15,5.16,2.35,4.69,.45,8.97-1.46,13.79-2.27,.17,2.13,1.35,3.97,.97,6.1-.38,2.06,.85,2.31,2.35,2.12,.84-.1,1.8-.12,2.65-1.1-.21-1.99-.48-4.15-1.55-6.14-.91-1.69-.63-2.61,1.51-3.01,5.11-.95,9.17-3.91,13.12-7.08,1.21-.97,2.32-1.67,1.88-3.55-.44-1.87-1.59-2.77-3.29-3.18-4.33-1.05-7.83,.64-10.94,3.44-3.15,2.85-4.12,2.67-5.97-1.29,1.89-.98,4.02-1.1,6.01-1.67,3.91-1.13,7.46-2.98,10.28-5.86,4.14-4.21,2.92-9.29-2.94-9.17-.11,0-.22-.19-.33-.29-5.45,1.54-10.26,4.1-13.66,8.92-2.41-2.2-.44-4.61-1.35-6.63,5.1-.28,9.46-1.89,13.72-3.86,7.38-5.18,7.22-9.75,5.8-14.55-.56-1.9-1.89-2.26-3.25-2.31-1.25-.04-2.54,.44-3.74,1.23-4.9,3.23-9.64,6.58-12.44,11.94-.28,.53-.53,1.23-1.37,1.25-.23-3.16-.43-6.2-.67-9.25-.14-1.88,.48-3.13,2.55-3.43,1.18-.17,2.35-.48,3.49-.85,6.42-2.06,11.63-5.68,15.05-11.58,.76-1.31,1.67-2.86,.64-4.12Z"/><path class="cls-2" d="M296.97,380.59c-.93-1.49-2.26-2.89-4.39-2.87-2.15,.02-4.22,.33-6.2,1.22-3.58,1.6-7.19,3.12-10.33,6.82,.46-2.29,.68-3.64,1.02-4.96,.49-1.89-.52-2.51-2.15-2.81-2.43-.45-2.62,1.77-3.58,3.33-1.27-1.41-2.41-2.46-3.28-3.71-1.88-2.68-4.67-4-7.57-5.09-3.23-1.21-5.81-.2-6.37,2.56-.69,3.4-.39,7.07,2.22,9.36,4.13,3.63,7.91,8.28,14.57,7.62-.09,3.49-.17,6.56-.27,10.36-1.66-2.2-3.22-3.57-3.86-5.28-.85-2.27-2.67-2.43-4.45-3.17-1.97-.81-3.84-.82-5.82-.41-1.7,.35-2.26,1.5-2.25,3.09,0,3.54,1.09,6.44,4.06,8.78,3.56,2.81,6.95,5.72,11.81,5.4,.96,2.92-.28,5.31,0,8.59-1.39-1.68-2.09-2.75-3-3.57-3.33-3.02-6.86-5.63-11.79-5.17-1.6,.15-2.49,.73-2.89,2.46-.77,3.3-.04,6.96,2.6,8.68,3.76,2.47,7.68,4.75,12.57,3.67,.79-.17,1.69-.44,2.54,.45,.38,1.99,.82,4.12,.47,6.43-2.01-.35-3.81-.68-5.6-.96-2.92-.46-5.84-.9-8.8-.52-3.17,.41-4.3,2.87-2.37,5.38,1.13,1.47,2.67,2.41,4.59,2.85,4.37,.99,8.64-.29,13.3-.47-.1,2.04,.79,3.92,.17,5.88-.61,1.89,.52,2.28,1.96,2.29,.81,0,1.71,.11,2.64-.72,.04-1.9,.05-3.97-.71-5.98-.65-1.71-.27-2.54,1.79-2.66,4.94-.27,9.13-2.58,13.24-5.09,1.26-.77,2.39-1.3,2.2-3.13-.19-1.82-1.17-2.81-2.72-3.4-3.96-1.52-7.47-.35-10.74,1.92-3.32,2.31-4.21,2.02-5.47-1.95,1.9-.7,3.93-.55,5.88-.85,3.83-.59,7.4-1.9,10.42-4.27,4.42-3.47,3.88-8.42-1.66-9.02-.1-.01-.18-.2-.27-.31-5.33,.79-10.19,2.62-13.98,6.75-2-2.37,.15-4.4-.47-6.42,4.85,.35,9.16-.63,13.42-1.97,7.6-3.99,8-8.33,7.25-13.03-.3-1.86-1.51-2.36-2.79-2.58-1.18-.19-2.45,.1-3.68,.71-5.02,2.46-9.9,5.03-13.2,9.76-.32,.46-.65,1.1-1.45,1.02,.17-3.01,.35-5.91,.5-8.81,.09-1.79,.83-2.89,2.83-2.93,1.13-.02,2.28-.17,3.39-.37,6.31-1.17,11.67-3.95,15.62-9.09,.88-1.14,1.93-2.5,1.11-3.82Z"/><path class="cls-2" d="M164.3,520.21c-1.88-.4-3.98-.4-5.57,1.3-1.6,1.71-2.92,3.57-3.71,5.79-1.44,4.02-2.97,8.01-2.42,13.27-1.45-2.09-2.36-3.28-3.13-4.54-1.12-1.82-2.37-1.48-3.83-.42-2.19,1.58-.58,3.4-.08,5.32-2.07-.07-3.76,.04-5.39-.21-3.52-.54-6.67,.65-9.71,2.12-3.39,1.63-4.53,4.43-2.79,6.95,2.15,3.11,5.27,5.64,9.04,5.31,5.97-.52,12.48,.02,16.98-5.72,2.68,2.71,5.03,5.08,7.95,8.03-2.98-.35-5.23-.16-7.06-.94-2.43-1.04-3.93,.27-5.85,1.12-2.12,.93-3.54,2.4-4.71,4.27-1,1.6-.52,2.9,.73,4.1,2.79,2.67,5.89,4,9.97,3.43,4.89-.69,9.74-1.15,13.15-5.22,3.02,1.45,3.97,4.22,6.76,6.48-2.37-.17-3.73-.43-5.07-.33-4.88,.35-9.6,1.16-12.95,5.38-1.09,1.37-1.3,2.51-.25,4.13,2.01,3.09,5.45,5.27,8.79,4.5,4.77-1.1,9.52-2.46,12.37-7.12,.46-.75,.93-1.66,2.27-1.66,1.85,1.2,3.86,2.46,5.41,4.47-1.79,1.32-3.4,2.48-4.98,3.69-2.56,1.95-5.11,3.92-7.04,6.54-2.07,2.8-.98,5.54,2.44,5.92,2.01,.22,3.91-.28,5.7-1.46,4.07-2.69,6.29-7.02,9.65-10.81,1.53,1.61,3.68,2.33,4.75,4.3,1.03,1.9,2.18,1.31,3.28,.18,.61-.63,1.38-1.27,1.42-2.62-1.47-1.47-3.09-3.04-5.24-3.95-1.84-.78-2.21-1.7-.74-3.41,3.51-4.09,4.86-9.13,5.98-14.26,.35-1.57,.78-2.86-.8-4.09-1.57-1.23-3.09-1.2-4.72-.43-4.18,1.97-5.91,5.61-6.59,9.9-.69,4.36-1.58,4.84-5.66,2.84,.89-2.02,2.53-3.5,3.77-5.27,2.42-3.46,4.08-7.26,4.49-11.42,.6-6.09-3.69-9.4-8.34-5.5-.09,.07-.3-.01-.45-.02-3.4,4.79-5.62,9.99-5.23,16.09-3.37-.21-3.35-3.44-5.41-4.47,3.93-3.55,6.41-7.68,8.56-12.04,2.59-8.98-.52-12.57-4.79-15.53-1.69-1.17-3-.59-4.13,.25-1.04,.78-1.77,2.01-2.22,3.43-1.85,5.8-3.5,11.59-2.27,17.74,.12,.61,.37,1.34-.29,1.91-2.24-2.4-4.39-4.73-6.56-7.03-1.34-1.42-1.65-2.83-.17-4.43,.84-.91,1.59-1.92,2.26-2.95,3.84-5.84,5.69-12.16,4.62-19.15-.24-1.55-.51-3.4-2.16-3.75Z"/><path class="cls-2" d="M248.28,213.58c.38-2.13,.31-4.5-1.66-6.24-1.98-1.75-4.13-3.17-6.67-3.99-4.59-1.48-9.15-3.07-15.07-2.27,2.31-1.71,3.62-2.77,5.02-3.7,2.01-1.32,1.59-2.72,.35-4.34-1.86-2.41-3.86-.54-6.01,.09,0-2.34-.18-4.24,.05-6.09,.49-4-.97-7.5-2.73-10.89-1.96-3.77-5.15-4.97-7.94-2.91-3.43,2.54-6.18,6.14-5.68,10.39,.79,6.72,.41,14.09,7.05,18.97-2.96,3.12-5.56,5.86-8.79,9.25,.29-3.38,0-5.91,.82-8,1.09-2.78-.44-4.43-1.46-6.57-1.13-2.37-2.84-3.91-4.99-5.17-1.84-1.08-3.3-.49-4.6,.97-2.91,3.25-4.31,6.79-3.52,11.37,.95,5.5,1.64,10.96,6.35,14.67-1.53,3.46-4.63,4.63-7.08,7.86,.11-2.68,.35-4.23,.2-5.74-.56-5.5-1.64-10.8-6.53-14.44-1.59-1.18-2.88-1.38-4.67-.14-3.42,2.38-5.76,6.33-4.78,10.08,1.41,5.35,3.11,10.67,8.47,13.71,.86,.49,1.91,.99,1.95,2.51-1.29,2.13-2.64,4.45-4.86,6.27-1.56-1.98-2.92-3.75-4.33-5.49-2.29-2.82-4.6-5.63-7.63-7.73-3.24-2.24-6.29-.92-6.6,2.97-.18,2.27,.45,4.4,1.85,6.38,3.18,4.51,8.14,6.85,12.54,10.53-1.76,1.78-2.5,4.24-4.69,5.51-2.11,1.23-1.4,2.51-.09,3.71,.73,.67,1.48,1.51,3,1.52,1.61-1.71,3.32-3.59,4.28-6.06,.81-2.1,1.85-2.55,3.82-.96,4.74,3.83,10.48,5.17,16.3,6.26,1.79,.34,3.25,.78,4.59-1.04,1.33-1.82,1.24-3.53,.32-5.35-2.37-4.65-6.54-6.48-11.41-7.09-4.94-.63-5.52-1.62-3.4-6.29,2.31,.93,4.04,2.74,6.08,4.07,3.99,2.61,8.34,4.36,13.05,4.67,6.9,.46,10.49-4.5,5.92-9.61-.08-.09,0-.34,0-.51-5.53-3.67-11.47-5.99-18.35-5.34,.12-3.81,3.76-3.9,4.86-6.26,4.14,4.31,8.89,6.97,13.89,9.25,10.23,2.61,14.18-1.03,17.36-5.95,1.26-1.95,.56-3.41-.43-4.65-.92-1.15-2.33-1.93-3.95-2.39-6.61-1.89-13.2-3.55-20.11-1.95-.68,.16-1.5,.46-2.16-.27,2.64-2.61,5.18-5.12,7.71-7.65,1.56-1.56,3.14-1.96,5-.35,1.05,.91,2.22,1.72,3.41,2.45,6.73,4.13,13.92,6,21.78,4.55,1.75-.32,3.82-.7,4.16-2.57Z"/><path class="cls-2" d="M139.8,234.18c4.12-.25,7.37-2.29,8.91-6.12,.56-1.41,1.51-2.66,1.68-4.24,.09-.84,.72-1.22,1.48-1.31,2.37-.28,4.1-1.69,5.73-3.25,2.9-2.78,3.45-6.12,1.58-9.64-.54-1.02-1.02-2.1-.75-3.18,.92-3.72-.98-6.12-3.75-7.96-1.29-.86-2.29-1.94-2.63-3.25-.62-2.4-2.24-3.17-4.36-3.64-2.3-.5-4.8-.74-6.77-1.88-2.28-1.31-4.57-2.2-8-2.82-1-.08-2.76-.87-4.8-.77-3.76,.19-7.41,1.02-11.11,1.5-1.96,.25-2.12,.62-1.97,2.62,.17,2.22,.65,4.4,.73,6.65,.22,6.51-.5,13.1,1.61,19.49,1.01,3.04,1.83,5.98,5.29,7.31,1.1,.43,2.2,1.39,2.71,2.73,.92,2.42,2.78,3.69,5.29,4.1,1.74,.28,3.25,1,4.72,2.02,1.27,.88,2.56,1.76,4.43,1.65Zm-10.54-34.47c4.07,.98,17.06,16.56,17.7,19.5-4.24-4.31-13.46-15.19-17.7-19.5Z"/><path class="cls-2" d="M28.21,506.04c4.12-.25,7.37-2.29,8.91-6.12,.56-1.41,1.51-2.66,1.68-4.24,.09-.84,.72-1.22,1.48-1.31,2.37-.28,4.1-1.69,5.73-3.25,2.9-2.78,3.45-6.12,1.58-9.64-.54-1.02-1.02-2.1-.75-3.18,.92-3.72-.98-6.12-3.75-7.96-1.29-.86-2.29-1.94-2.63-3.25-.62-2.4-2.24-3.17-4.36-3.64-2.3-.5-4.8-.74-6.77-1.88-2.28-1.31-4.57-2.2-8-2.82-1-.08-2.76-.87-4.8-.77-3.76,.19-7.41,1.02-11.11,1.5-1.96,.25-2.12,.62-1.97,2.62,.17,2.22,.65,4.4,.73,6.65,.22,6.51-.5,13.1,1.61,19.49,1.01,3.04,1.83,5.98,5.29,7.31,1.1,.43,2.2,1.39,2.71,2.73,.92,2.42,2.78,3.69,5.29,4.1,1.74,.28,3.25,1,4.72,2.02,1.27,.88,2.56,1.76,4.43,1.65Zm-10.54-34.47c4.07,.98,17.06,16.56,17.7,19.5-4.24-4.31-13.46-15.19-17.7-19.5Z"/><path class="cls-2" d="M182.1,346.9c1.5-3.55,1.66-7.1,1.68-10.71,.02-2.97,1.24-4.52,4.02-5.06,5.35-1.05,7.45-5.51,9.46-9.67,.89-1.85,1.67-4.26,1.2-6.54-1.67-8.03-9.59-12.71-17.82-11.03-3.87,.79-6.9,2.71-9.52,5.43-1.65-1.35-1.17-3.07-1.65-4.48-2.55-7.53-6.15-14.08-16.38-11.83-6.21,1.37-12.56,10.02-8.95,16.4,.8,1.41,.94,3.19,1.45,5.01-6.12,.75-10.52,3.73-13.58,8.85-2.55,4.27-2.02,8.86,1.68,12.16,7.86,6.99,11.03,7.65,20.79,3.99,1.69-.63,3.57-.95,4.87-2.63,.71,1.54,.62,2.75,.54,3.98-.29,4.09,1.45,6.96,4.28,10.05,5.22,5.69,14.76,3.56,17.91-3.91Zm-20.81-19.7c-1.44-1.02-1.58-3.24-.33-5.08,1.56-2.29,4.08-2.83,6.16-1.36,1.57,1.11,2.48,2.55,1.5,4.39-1.1,2.07-5.67,3.23-7.34,2.05Z"/><path class="cls-2" d="M296.81,543.38c-.29-3.59-1.69-6.62-3.23-9.62-1.27-2.47-.92-4.29,1.15-5.94,3.99-3.18,3.8-7.8,3.67-12.12-.06-1.92-.45-4.26-1.83-5.95-4.86-5.95-13.47-6.41-19.58-1.45-2.88,2.33-4.56,5.23-5.56,8.63-1.95-.41-2.3-2.05-3.31-3.01-5.37-5.16-11.2-9.03-18.72-2.74-4.57,3.82-6.09,13.76-.34,17.49,1.27,.83,2.16,2.24,3.37,3.53-4.76,3.28-7.12,7.65-7.45,13.22-.27,4.65,2.15,8.23,6.66,9.37,9.55,2.41,12.47,1.58,19-5.68,1.13-1.25,2.56-2.33,2.91-4.3,1.26,.98,1.71,2.01,2.17,3.07,1.53,3.52,4.22,5.15,7.9,6.49,6.79,2.47,13.8-3.43,13.19-11Zm-25.81-7.35c-1.64-.23-2.72-2.01-2.47-4.07,.31-2.58,2.17-4.12,4.53-3.79,1.79,.24,3.16,1.04,3.15,2.99-.02,2.2-3.31,5.14-5.21,4.88Z"/><path class="cls-2" d="M245.34,176.69c2.24-1.78,3.61-4.04,4.91-6.39,1.07-1.93,2.42-2.51,4.43-1.87,3.87,1.22,6.83-.94,9.62-2.95,1.24-.89,2.61-2.19,3.11-3.84,1.77-5.84-1.74-11.72-7.71-13.55-2.81-.86-5.47-.69-8.15,.16-.59-1.47,.33-2.43,.52-3.51,1.02-5.83,1-11.39-6.48-13.56-4.54-1.32-11.77,2.07-11.69,7.52,.02,1.2-.52,2.42-.84,3.79-4.27-1.69-8.2-1.31-12.02,.94-3.19,1.88-4.48,5.07-3.23,8.54,2.64,7.36,4.48,8.92,12.16,10.01,1.33,.19,2.67,.65,4.12,.01-.09,1.26-.57,2.02-1.06,2.79-1.65,2.57-1.53,5.06-.78,8.09,1.38,5.57,8.37,7.58,13.09,3.83Zm-6.58-20.28c-.58-1.18,.12-2.68,1.59-3.43,1.84-.94,3.67-.39,4.51,1.31,.63,1.29,.71,2.55-.58,3.4-1.46,.96-4.86,.09-5.52-1.27Z"/><path class="cls-2" d="M134.54,155.5c-4.1-12.33-13.92-18.43-25.11-22.99-2.13-.63-4.27-.8-6.4-1.12-2.25-.34-4.5-.67-6.77-.91-8.67-.94-15.65,3.71-17.8,11.54-1.67,6.08-.72,12.02,1.94,17.6,2.52,5.28,6.39,9.13,12.47,10.4,3.04,.64,6.09,.99,9.15,1.33,4.14,.45,8.31,.7,12.13,2.53,2.47,1.18,5.04,1.74,7.75,2.07,4.3,.51,7.74-1.05,10.21-4.38,3.6-4.85,4.34-10.33,2.43-16.06Zm-14.68,16.35c-3.72-.02-7.1-1.02-10.4-2.66-2.89-1.44-5.94-2.48-9.26-2.45-2.98,.03-5.84-.57-8.72-1.34-3.97-1.07-6.29-3.49-8-7.2-1.69-3.68-2.27-7.28-2.04-11.27,.4-6.98,5.88-10.95,11.34-12.48,2.65-.74,5.3-.58,7.88,.58,1.1,.49,2.32,.7,3.48,1.03,6.34,1.81,12.34,4.37,18.08,7.66,5.31,3.04,7.95,7.95,9.58,13.34,2.05,6.81-4.75,14.84-11.95,14.8Z"/><path class="cls-2" d="M44.92,582.16c-3.06-9.19-10.37-13.72-18.7-17.12-1.59-.47-3.18-.59-4.77-.83-1.68-.26-3.35-.5-5.04-.68-6.46-.7-11.65,2.76-13.25,8.6-1.24,4.53-.54,8.95,1.44,13.11,1.88,3.94,4.76,6.8,9.28,7.75,2.26,.47,4.54,.74,6.81,.99,3.08,.33,6.19,.52,9.04,1.88,1.84,.88,3.76,1.3,5.77,1.54,3.2,.38,5.76-.78,7.6-3.26,2.68-3.61,3.23-7.69,1.81-11.96Zm-10.93,12.18c-2.77-.02-5.29-.76-7.75-1.98-2.15-1.07-4.42-1.85-6.89-1.82-2.22,.02-4.35-.42-6.49-1-2.96-.79-4.69-2.6-5.95-5.36-1.26-2.74-1.69-5.42-1.52-8.39,.3-5.2,4.38-8.15,8.44-9.29,1.97-.55,3.95-.43,5.87,.43,.82,.37,1.73,.52,2.59,.77,4.72,1.35,9.19,3.25,13.46,5.7,3.95,2.26,5.92,5.92,7.13,9.94,1.53,5.07-3.54,11.05-8.9,11.02Z"/><path class="cls-2" d="M54.3,349.81c-12.56-3.36-23.05,1.49-33.01,8.32-1.7,1.43-3.02,3.13-4.46,4.73-1.53,1.69-3.03,3.39-4.49,5.15-5.55,6.72-5.52,15.11-.15,21.21,4.16,4.74,9.64,7.22,15.76,8.06,5.8,.8,11.14-.31,15.55-4.69,2.2-2.19,4.18-4.54,6.14-6.91,2.65-3.21,5.15-6.56,8.79-8.74,2.34-1.41,4.23-3.25,5.99-5.33,2.8-3.31,3.38-7.04,1.96-10.93-2.07-5.68-6.24-9.3-12.08-10.87Zm5.58,21.25c-2.07,3.1-4.76,5.37-7.95,7.22-2.79,1.62-5.34,3.6-7.14,6.38-1.61,2.5-3.69,4.56-5.92,6.54-3.07,2.73-6.38,3.34-10.41,2.71-4-.62-7.33-2.11-10.53-4.5-5.61-4.18-5.91-10.93-4.18-16.33,.84-2.62,2.43-4.75,4.82-6.27,1.01-.64,1.86-1.55,2.78-2.34,5-4.3,10.44-7.9,16.34-10.88,5.46-2.76,11.01-2.27,16.41-.66,6.82,2.03,9.78,12.13,5.79,18.12Z"/><path class="cls-2" d="M279.84,453.79c-11.85,.61-19.6,7.77-26.33,16.5-1.07,1.72-1.74,3.57-2.54,5.36-.85,1.9-1.68,3.8-2.45,5.73-2.93,7.4-.55,14.67,5.83,18.46,4.95,2.95,10.4,3.56,15.96,2.58,5.26-.93,9.58-3.4,12.18-8.44,1.3-2.52,2.36-5.12,3.39-7.73,1.4-3.53,2.63-7.14,5.18-10.06,1.64-1.88,2.76-4.01,3.7-6.31,1.5-3.66,.96-7.06-1.37-10.05-3.4-4.35-8.04-6.33-13.54-6.04Zm10.82,16.89c-.92,3.27-2.62,6-4.87,8.5-1.97,2.19-3.63,4.62-4.41,7.55-.7,2.63-1.92,5-3.3,7.34-1.9,3.23-4.6,4.69-8.28,5.28-3.65,.59-6.96,.23-10.41-.95-6.04-2.05-8.2-7.83-8.22-13.01,0-2.51,.78-4.81,2.42-6.79,.7-.84,1.18-1.87,1.75-2.81,3.14-5.14,6.85-9.79,11.13-14.04,3.96-3.93,8.92-5.06,14.07-5.18,6.49-.15,11.9,7.79,10.11,14.11Z"/><path class="cls-2" d="M85.51,203.42c-1.69,2.09-3.81,3.71-6.33,4.85-2.55,1.15-5.14,1.38-7.77,.54-1.33-.43-2.38-.17-3.51,.54-1.87,1.17-3.68,2.43-5.64,3.45-2.85,1.49-6.16,.97-8.37-1.38-1.21-1.29-1.57-2.85-1.3-4.57,.41-2.55,1.78-4.62,3.33-6.59,.49-.62,1.15-1.09,1.53-1.92-1.01-1.13-2.42-1.79-3.51-2.84-1.71-1.64-2.72-3.6-2.78-5.99-.04-1.67,.68-2.92,2.13-3.79,2.98-1.79,6.3-2.53,9.68-2.89,2.21-.24,4.15,.92,6.04,1.98,.59,.33,1.14,.72,1.92,1.21,.37-.92,.74-1.78,1.05-2.66,.61-1.66,1.36-3.25,2.38-4.68,1.72-2.41,4.32-3.37,7.05-4.06,.38-.1,.78-.14,1.17-.21,2.53-.5,3.89,.14,5.34,2.25,1.46,2.13,2.31,4.39,2.2,7-.02,.5-.05,1.02,.22,1.49,.24,.3,.59,.3,.93,.33,3.46,.3,6.56,1.63,9.5,3.4,1.03,.62,1.68,1.53,2.09,2.6,1.12,2.9,1.37,5.91,1.24,9-.08,2.05-1.22,3.29-2.89,4.04-4.91,2.21-9.81,2.6-14.54-.57-.32-.22-.63-.49-1.15-.53Z"/><path class="cls-2" d="M128.36,589.38c-1.69,1.94-3.78,3.42-6.23,4.42-2.48,1.01-4.97,1.14-7.46,.25-1.26-.46-2.28-.25-3.38,.39-1.83,1.06-3.61,2.2-5.53,3.11-2.79,1.32-5.94,.72-7.97-1.61-1.11-1.28-1.41-2.78-1.08-4.42,.48-2.43,1.87-4.36,3.42-6.2,.49-.58,1.14-1.01,1.53-1.79-.92-1.12-2.25-1.8-3.26-2.84-1.58-1.63-2.48-3.54-2.46-5.84,.02-1.6,.75-2.77,2.17-3.56,2.92-1.61,6.13-2.2,9.37-2.43,2.12-.15,3.95,1.03,5.71,2.11,.55,.34,1.07,.73,1.79,1.23,.39-.87,.77-1.68,1.1-2.51,.64-1.57,1.41-3.07,2.44-4.4,1.73-2.25,4.26-3.08,6.9-3.64,.37-.08,.75-.1,1.13-.16,2.45-.39,3.72,.27,5.03,2.34,1.32,2.09,2.06,4.29,1.86,6.78-.04,.48-.08,.98,.16,1.44,.22,.3,.55,.31,.87,.35,3.31,.41,6.23,1.79,8.98,3.58,.96,.63,1.55,1.52,1.91,2.56,.97,2.82,1.11,5.71,.88,8.67-.15,1.96-1.28,3.11-2.91,3.77-4.79,1.95-9.49,2.15-13.91-1.06-.3-.22-.59-.49-1.09-.55Z"/><path class="cls-2" d="M11.31,274.18c4.46-5.36,9.1-10.57,13.32-16.11,5.16-6.76,10.24-13.62,14.83-20.78,2.96-4.62,5.86-9.28,9.1-13.72,1.97-2.71,3.42-2.93,6.28-1.1,3.17,2.03,6.13,4.19,7.64,7.91,1.17,2.88,1.23,5.4-.56,8.08-2.07,3.09-4.58,5.48-8.01,7.01-2.6,1.15-5,2.76-7.6,3.93-2.48,1.11-3.47,3.01-3.63,5.52-.11,1.73-.16,3.46-.13,5.19,.09,5.56-1.91,9.03-7.1,10.35-4.36,1.11-6.18,3.73-6.75,7.78-.05,.37-.22,.71-.31,1.08-.64,2.68-1.11,5.57-4.26,6.48-3.61,1.04-7.32,1.85-10.73-.67-1.59-1.17-3.36-2.08-4.5-3.88-.79-1.23-1.04-2.15-.12-3.34,.92-1.18,1.76-2.44,2.63-3.66l-.09-.08Z"/><path class="cls-2" d="M56.24,334.79c.17,1.77-.9,2.59-2.35,2.1-1.63-.56-2.93-3-2.49-4.68,.35-1.32,1.58-1.83,2.75-1.11,1.47,.9,1.75,2.45,2.08,3.69Z"/><path class="cls-2" d="M62.67,338.91c-.68,1.65-2,1.88-3.05,.76-1.18-1.25-1.19-4.02-.02-5.3,.92-1,2.25-.88,2.95,.3,.88,1.48,.4,2.98,.12,4.24Z"/><path class="cls-2" d="M9.96,311.77c-.68,1.65-2,1.88-3.05,.76-1.18-1.25-1.19-4.02-.02-5.3,.92-1,2.25-.88,2.95,.3,.88,1.48,.4,2.98,.12,4.24Z"/><path class="cls-2" d="M10.99,152.1c-.68,1.65-2,1.88-3.05,.76-1.18-1.25-1.19-4.02-.02-5.3,.92-1,2.25-.88,2.95,.3,.88,1.48,.4,2.98,.12,4.24Z"/><path class="cls-2" d="M219.41,589.88c-.85,1.56-2.19,1.65-3.12,.43-1.04-1.37-.75-4.13,.55-5.27,1.02-.9,2.33-.63,2.9,.62,.72,1.57,.08,3.01-.34,4.22Z"/><path class="cls-2" d="M225.84,586.67c-.85,1.56-2.19,1.65-3.12,.43-1.04-1.37-.75-4.13,.55-5.27,1.02-.9,2.33-.63,2.9,.62,.72,1.57,.08,3.01-.34,4.22Z"/><rect class="cls-3" width="300" height="600"/><path class="cls-2" d="M286.01,226.6c.17,1.77-.9,2.59-2.35,2.1-1.63-.56-2.93-3-2.49-4.68,.35-1.32,1.58-1.83,2.75-1.11,1.47,.9,1.75,2.45,2.08,3.69Z"/><path class="cls-2" d="M292.44,230.72c-.68,1.65-2,1.88-3.05,.76-1.18-1.25-1.19-4.02-.02-5.3,.92-1,2.25-.88,2.95,.3,.88,1.48,.4,2.98,.12,4.24Z"/><path class="cls-2" d="M289.45,144.31c2.92,3.58,4.48,7.89,5.08,12.6,.29,2.28-.63,3.19-3.03,3.49-4.46,.56-7.67-.84-10.21-4.51-2.64-3.8-3.18-7.88-2.62-12.46,.41-3.35,1.92-4.27,4.82-2.91,2.14,1,4.47,1.75,5.96,3.78Z"/><path class="cls-2" d="M267.04,293.94c2.29-3.76,5.26-5.7,9.88-4.81-.73,1.82-1.18,3.42-1.98,4.8-1.48,2.55-2.6,4.86-1.5,8.08,.8,2.35-1.38,4.22-3.24,2.73-3.76-3.02-7.06-1.49-10.71-.13-2.34,.87-3.51-.41-2.42-2.74,2.04-4.34,3.38-8.54,1.09-13.14-.33-.66-.26-1.55,.52-2.01,.72-.42,1.32-.02,1.99,.36,2.73,1.58,4.4,4.24,6.36,6.85Z"/><path class="cls-2" d="M11.85,242.13c2.29-3.76,5.26-5.7,9.88-4.81-.73,1.82-1.18,3.42-1.98,4.8-1.48,2.55-2.6,4.86-1.5,8.08,.8,2.35-1.38,4.22-3.24,2.73-3.76-3.02-7.06-1.49-10.71-.13-2.34,.87-3.51-.41-2.42-2.74,2.04-4.34,3.38-8.54,1.09-13.14-.33-.66-.26-1.55,.52-2.01,.72-.42,1.32-.02,1.99,.36,2.73,1.58,4.4,4.24,6.36,6.85Z"/><path class="cls-2" d="M172.07,34.3c-1.46-.03-2.87-.04-3.23-1.9-.1-.54-.25-1.01,.17-1.49,.98-1.13,1.96-2.24,3.36-2.87,1.25-.57,2.35-.13,3.23,.67,1,.92,.92,2.24,.29,3.25-.84,1.36-1.98,2.56-3.82,2.33Z"/><path class="cls-2" d="M83.82,590.99c-.85,1.56-2.19,1.65-3.12,.43-1.04-1.37-.75-4.13,.55-5.27,1.02-.9,2.33-.63,2.9,.62,.72,1.57,.08,3.01-.34,4.22Z"/></g></svg>